# xmcd
# Track frame offsets:
# 150
# 12211
# 35025
# 60147
# 76077
# 91957
# 112878
# 129700
# 148282
# 165588
# 183507
# 200277
#
# Disc length: 2893 seconds
# Revision: 0
# Processed by: cddbd v1.5.2PL0 Copyright (c) Steve Scherf et al.
# Submitted via: VisiTrax 2.11.2.271 - For more info visit www.synapsa.com
#
DISCID=960b4b0c
DTITLE=Simply Bushed - This Country
DYEAR=2014
DGENRE=Country
TTITLE0=Lucky Lucky Country
TTITLE1=Father's Day
TTITLE2=This Country
TTITLE3=Chain Around Your Dingo
TTITLE4=Harry
TTITLE5=Mum's Bum Wobbles
TTITLE6=Dead Roo
TTITLE7=Saturday Night
TTITLE8=She'll Be Right
TTITLE9=Dusty Floors
TTITLE10=No Slouch
TTITLE11=Making Hay
EXTD=
EXTT0=
EXTT1=
EXTT2=
EXTT3=
EXTT4=
EXTT5=
EXTT6=
EXTT7=
EXTT8=
EXTT9=
EXTT10=
EXTT11=
PLAYORDER=
